<?xml version="1.0" encoding="UTF-8"?>
<!-- Generator: visioncortex VTracer 0.6.12 -->
<svg xmlns="http://www.w3.org/2000/svg" viewBox="0 0 200 200" width="100%" height="100%" role="img" aria-label="ganesha symbol">
<path d="M0 0 C2.312 0.188 2.312 0.188 5 1 C7.269 3.738 7.951 5.522 8.312 9.062 C7.799 13.888 7.799 13.888 6 16 C2.375 16.75 2.375 16.75 -1 17 C-3.975 12.909 -4.629 10.029 -4 5 C-2 2.062 -2 2.062 0 0 Z " fill="#a07830" transform="translate(97,12)"/>
<path d="M0 0 C5.435 1.647 10.168 4.947 13.113 9.855 C15.221 14.86 15.335 19.635 15 25 C13.109 22.164 12.239 19.955 11.188 16.75 C8.761 9.92 5.356 4.959 0 0 Z " fill="#a07830" transform="translate(118,22)"/>
<path d="M0 0 C0.99 0.33 1.98 0.66 3 1 C2.541 1.485 2.082 1.969 1.609 2.469 C-2.568 7.032 -5.501 11.363 -8 17 C-8.661 18.336 -9.326 19.67 -10 21 C-11.348 16.956 -10.375 13.896 -9 10 C-6.625 5.742 -4.128 2.646 0 0 Z " fill="#a07830" transform="translate(79,23)"/>
<path d="M0 0 C7.097 -0.108 13.961 0.061 21 1 C18.37 3.63 16.548 3.956 12.875 4.25 C8.208 3.949 4.343 2.654 0 1 C0 0.67 0 0.34 0 0 Z " fill="#a07830" transform="translate(88,31)"/>
<path d="M0 0 C0.648 0.026 0.648 0.026 3.926 0.156 C5.289 0.221 6.652 0.286 8.016 0.352 C9.394 0.41 10.773 0.467 12.152 0.523 C15.524 0.665 18.895 0.816 22.266 0.977 C18.909 4.334 15.677 4.123 11.107 4.166 C10.71 4.166 10.71 4.166 8.703 4.164 C7.897 4.165 7.091 4.165 6.26 4.166 C0.416 4.114 -5.086 3.566 -10.734 1.977 C-7.111 -0.321 -4.221 -0.185 0 0 Z " fill="#a07830" transform="translate(92.734375,36.0234375)"/>
<path d="M0 0 C0.669 0.024 1.338 0.047 2.028 0.072 C4.154 0.148 6.28 0.232 8.406 0.316 C10.532 0.396 12.659 0.473 14.785 0.551 C16.714 0.621 18.643 0.696 20.572 0.771 C23.354 0.861 26.124 0.9 28.906 0.879 C24.629 5.156 15.744 4.831 9.906 4.879 C2.516 4.358 -4.801 3.159 -12.094 1.879 C-12.094 1.549 -12.094 1.219 -12.094 0.879 C-7.969 -0.139 -4.237 -0.161 0 0 Z " fill="#a07830" transform="translate(90.09375,42.12109375)"/>
<path d="M0 0 C7.689 6.343 8.818 15.011 9.938 24.438 C11.787 39.147 17.574 47.767 28.062 58 C35.212 65.006 42.137 73.216 43.438 83.438 C42.722 89.26 40.646 93.354 36.5 97.5 C32.434 100.571 28.088 103.278 23.844 106.094 C17.799 110.146 13.275 113.836 11 121 C11 126.042 13.086 128.994 16 133 C16.33 133.66 16.66 134.32 17 135 C12.308 133.659 9.492 131.119 7 127 C5.359 122.26 5.993 119.369 8 114.938 C11.78 107.265 19.195 103.041 26.312 98.812 C27.729 97.971 29.142 97.123 30.551 96.27 C31.166 95.904 31.781 95.539 32.415 95.163 C34.845 93.38 35.904 91.608 36.371 88.652 C36.609 78.909 33.178 71.791 26.668 64.645 C24.212 62.224 21.598 60.007 18.969 57.777 C15.994 55.092 13.532 52.102 11 49 C10.01 49.66 9.02 50.32 8 51 C5.312 50.625 5.312 50.625 3 50 C2.67 49.01 2.34 48.02 2 47 C3.65 46.01 5.3 45.02 7 44 C2.943 14.059 2.943 14.059 -3 8 C-8.079 4.275 -13.349 2.207 -19.684 2.559 C-24.034 3.388 -28.004 5.131 -32 7 C-30.583 10.282 -28.881 12.229 -26.25 14.625 C-21.932 18.824 -18.456 23.472 -16 29 C-16.33 29.66 -16.66 30.32 -17 31 C-17.473 30.383 -17.946 29.765 -18.434 29.129 C-24.227 21.709 -30.312 14.524 -38 9 C-37.938 6.812 -37.938 6.812 -37 4 C-27.007 -4.93 -11.529 -7.574 0 0 Z " fill="#a07830" transform="translate(80,54)"/>
<path d="M0 0 C3.932 2.984 6.111 6.454 8.117 10.867 C7.737 14.483 7.062 14.915 4.133 17.453 C2.885 18.393 1.63 19.322 0.367 20.242 C-5.858 24.814 -10.311 29.611 -14.883 35.867 C-14.528 28.763 -10.467 24.369 -5.555 19.613 C0.447 14.203 0.447 14.203 3.117 12.867 C1.049 7.984 -2.232 6.137 -6.883 3.867 C-14.104 1.264 -20.87 1.451 -28.07 3.992 C-33.057 7.317 -36.105 10.907 -38.32 16.492 C-40.633 29.806 -35.828 38.558 -29.214 49.601 C-15.189 73.484 -15.189 73.484 -17.324 85.879 C-20.597 97.528 -36.306 104.688 -45.883 110.867 C-46.213 111.032 -46.213 111.032 -47.883 111.867 C-44.338 103.36 -34.483 97.671 -27.133 92.691 C-23.464 89.716 -22.964 87.595 -22.445 82.93 C-22.82 68.619 -32.971 54.248 -40.862 42.799 C-46.771 33.995 -46.557 25.791 -44.695 15.805 C-42.695 7.208 -40.294 3.174 -32.82 -1.508 C-22.269 -7.588 -10.297 -6.195 0 0 Z " fill="#a07830" transform="translate(150.8828125,57.1328125)"/>
<path d="M0 0 C3.406 2.373 3.711 5.741 4.668 9.613 C5.106 13.319 4.171 15.41 1.996 18.391 C-0.816 18.703 -0.816 18.703 -4.004 18.391 C-5.941 16.266 -5.941 16.266 -7.004 13.391 C-6.816 10.516 -6.816 10.516 -6.004 7.391 C-5.695 6.133 -5.385 4.874 -5.066 3.578 C-4.716 2.526 -4.365 1.474 -4.004 0.391 C-2.004 -0.609 -2.004 -0.609 0 0 Z " fill="#a07830" transform="translate(100.00390625,54.609375)"/>
<path d="M0 0 C0.66 0.33 1.32 0.66 2 1 C1.113 1.949 0.226 2.897 -0.688 3.875 C-4.38 8.161 -6.641 12.897 -9 18 C-9.662 19.336 -10.327 20.67 -11 22 C-11.453 15.664 -10.741 11.24 -7 6 C-4.807 3.793 -2.497 1.852 0 0 Z " fill="#a07830" transform="translate(125,64)"/>
<path d="M0 0 C3.265 0.272 4.741 0.763 7.188 3 C9.522 6.863 10.269 10.585 11 15 C10.34 15 9.68 15 9 15 C8.685 14.336 8.371 13.672 8.047 12.988 C5.747 8.243 3.559 3.954 0 0 Z " fill="#a07830" transform="translate(71,69)"/>
</svg>
